# xmcd CD database file generated by OrangeCD 4.3
#
# Track frame offsets:
#	150
#	2667
#	18095
#	32784
#	46513
#	61033
#	76154
#	76963
#	91522
#	99570
#	115893
#	130913
#	148563
#	158109
#	172950
#
# Disc length: 2491 seconds
#
# Revision: 0
# Processed by: cddbd v1.4PL0 Copyright (c) Steve Scherf et al.
# Submitted via: OrangeCD 4.3
#
DISCID=9d09b90f
DTITLE=EastSide Click - Handing Out Beat Downs
DYEAR=2000
DGENRE=
TTITLE0=Handing Out Beat Downs
TTITLE1=Party Crashing II
TTITLE2=Jungle Boogie
TTITLE3=Dance
TTITLE4=Saviers Rd.
TTITLE5=Drop
TTITLE6=Skit
TTITLE7=Pelones
TTITLE8=Where Your From?
TTITLE9=Pigs
TTITLE10=Rumors
TTITLE11=The Evilest
TTITLE12=Outro Talk'in Shit
TTITLE13=So Ruff
TTITLE14=Throw Those Fingaz
EXTD=
EXTT0=
EXTT1=
EXTT2=
EXTT3=
EXTT4=
EXTT5=
EXTT6=
EXTT7=
EXTT8=
EXTT9=
EXTT10=
EXTT11=
EXTT12=
EXTT13=
EXTT14=
PLAYORDER=
